<?xml version="1.0" encoding="UTF-8" standalone="no"?><!DOCTYPE svg PUBLIC "-//W3C//DTD SVG 1.1//EN" "http://www.w3.org/Graphics/SVG/1.1/DTD/svg11.dtd"><svg width="100%" height="100%" viewBox="0 0 2084 625" version="1.1" xmlns="http://www.w3.org/2000/svg" xmlns:xlink="http://www.w3.org/1999/xlink" xml:space="preserve" xmlns:serif="http://www.serif.com/" style="fill-rule:evenodd;clip-rule:evenodd;stroke-linecap:round;"><g><g><path d="M166.211,250c0,-104.167 125,-104.167 125,0" style="fill:none;fill-rule:nonzero;stroke:url(#_Linear1);stroke-width:33.33px;"/><path d="M353.711,250l-250,0c-50,0 -62.5,41.667 -62.5,83.333l0,125c0,62.5 62.5,83.333 187.5,83.333c125,0 187.5,-20.833 187.5,-83.333l0,-83.333l-187.5,0" style="fill:none;fill-rule:nonzero;stroke:url(#_Linear2);stroke-width:50px;stroke-linejoin:round;"/><circle cx="153.711" cy="354.167" r="20.833" style="fill:#7b2cbf;"/><text x="520.378px" y="395.833px" style="font-family:'Arial-Black', 'Arial', sans-serif;font-weight:900;font-size:266.667px;fill:#2d0066;">g<tspan x="695.576px 781.711px 959.513px 1134.711px 1309.909px " y="395.833px 395.833px 395.833px 395.833px 395.833px ">igghy</tspan></text><text x="1474.544px" y="395.833px" style="font-family:'ArialMT', 'Arial', sans-serif;font-size:266.667px;fill:url(#_Linear3);">shop</text></g></g><defs><linearGradient id="_Linear1" x1="0" y1="0" x2="1" y2="0" gradientUnits="userSpaceOnUse" gradientTransform="matrix(125,78.125,-78.125,125,166.210938,171.875)"><stop offset="0" style="stop-color:#7b2cbf;stop-opacity:1"/><stop offset="1" style="stop-color:#ff007a;stop-opacity:1"/></linearGradient><linearGradient id="_Linear2" x1="0" y1="0" x2="1" y2="0" gradientUnits="userSpaceOnUse" gradientTransform="matrix(375,291.666667,-291.666667,375,41.210938,250)"><stop offset="0" style="stop-color:#7b2cbf;stop-opacity:1"/><stop offset="1" style="stop-color:#ff007a;stop-opacity:1"/></linearGradient><linearGradient id="_Linear3" x1="0" y1="0" x2="1" y2="0" gradientUnits="userSpaceOnUse" gradientTransform="matrix(578.255208,191.015625,-191.015625,578.255208,1474.544271,204.817708)"><stop offset="0" style="stop-color:#7b2cbf;stop-opacity:1"/><stop offset="1" style="stop-color:#ff007a;stop-opacity:1"/></linearGradient></defs></svg>